<svg width="14" height="14" viewBox="0 0 14 14" fill="none" xmlns="http://www.w3.org/2000/svg">
<path d="M13.3537 13.1461L10.2244 10.0174C11.1314 8.92846 11.5837 7.53177 11.4871 6.11786C11.3906 4.70395 10.7527 3.38168 9.70608 2.42613C8.65948 1.47058 7.28477 0.955307 5.86793 0.987507C4.4511 1.01971 3.10122 1.5969 2.0991 2.59901C1.09699 3.60112 0.519799 4.951 0.487599 6.36784C0.455399 7.78468 0.97067 9.15938 1.92622 10.206C2.88177 11.2526 4.20404 11.8905 5.61795 11.987C7.03186 12.0836 8.42856 11.6313 9.51749 10.7243L12.6462 13.8536C12.6927 13.9001 12.7478 13.937 12.8085 13.9621C12.8692 13.9872 12.9343 14.0002 13 14.0002C13.0657 14.0002 13.1307 13.9872 13.1914 13.9621C13.2521 13.937 13.3073 13.9001 13.3537 13.8536C13.4002 13.8072 13.437 13.752 13.4622 13.6913C13.4873 13.6307 13.5003 13.5656 13.5003 13.4999C13.5003 13.4342 13.4873 13.3691 13.4622 13.3085C13.437 13.2478 13.4002 13.1926 13.3537 13.1461ZM1.49999 6.4999C1.49999 5.60988 1.76391 4.73985 2.25838 3.99983C2.75284 3.25981 3.45565 2.68303 4.27791 2.34244C5.10018 2.00185 6.00498 1.91273 6.8779 2.08636C7.75081 2.26 8.55263 2.68858 9.18197 3.31792C9.81131 3.94725 10.2399 4.74908 10.4135 5.62199C10.5872 6.49491 10.498 7.39971 10.1574 8.22197C9.81685 9.04424 9.24008 9.74705 8.50006 10.2415C7.76004 10.736 6.89001 10.9999 5.99999 10.9999C4.80692 10.9986 3.6631 10.524 2.81947 9.68042C1.97584 8.83679 1.50131 7.69297 1.49999 6.4999Z" fill="#52525B"/>
</svg>
